<svg width="82" height="65" viewBox="0 0 82 65" fill="none" xmlns="http://www.w3.org/2000/svg">
<path d="M40.5511 2.86605C30.4703 2.86605 20.9727 5.89117 13.8091 11.384C6.49762 16.9901 2.47095 24.4892 2.47095 32.5002C2.47095 40.5112 6.49762 48.0107 13.8091 53.6164C20.973 59.1093 30.4703 62.134 40.5511 62.134C50.6322 62.134 60.1295 59.1093 67.2931 53.6164C74.6049 48.0107 78.6316 40.5112 78.6316 32.5002C78.6316 24.4892 74.6049 16.9901 67.2935 11.384C60.1299 5.89117 50.6322 2.86605 40.5511 2.86605Z" fill="white"/>
<path d="M28.9991 51.5769C28.9991 52.5192 28.5281 52.9915 27.5859 52.9937C26.6457 52.9937 26.1758 52.5213 26.1758 51.5769V47.6515C26.1758 46.7092 26.6457 46.2378 27.5859 46.2378C28.5281 46.2378 28.9991 46.7092 28.9991 47.6515V48.5807H27.9094V47.6515C27.9094 47.4073 27.8028 47.2839 27.589 47.2817H27.5823C27.3707 47.2817 27.2648 47.4049 27.2648 47.6515V51.5769C27.2648 51.8235 27.3721 51.9469 27.5859 51.9469C27.8014 51.9469 27.9094 51.8235 27.9094 51.5769V50.648H28.9991V51.5769Z" fill="#414142"/>
<path d="M31.9221 47.6515C31.9221 47.4073 31.8155 47.2842 31.6017 47.2821H31.595C31.3834 47.2821 31.2775 47.4049 31.2775 47.6515V51.5769C31.2775 51.8235 31.3848 51.9469 31.5982 51.9469C31.8141 51.9469 31.9221 51.8235 31.9221 51.5769V47.6515ZM33.0118 51.5769C33.0118 52.5192 32.5405 52.9915 31.5982 52.9937C30.658 52.9937 30.1885 52.5213 30.1885 51.5769V47.6515C30.1885 46.7092 30.658 46.2382 31.5982 46.2382C32.5405 46.2382 33.0118 46.7092 33.0118 47.6515V51.5769Z" fill="#414142"/>
<path d="M36.3963 50.6808L37.4035 46.3395H38.4802V52.8889H37.4299V49.8758L36.7889 52.8889H36.0234L35.3591 49.856V52.8889H34.2993V46.3395H35.3757L36.3963 50.6808Z" fill="#414142"/>
<path d="M40.9223 47.383V49.0908H41.0532C41.171 49.0908 41.2472 49.0845 41.2821 49.0711C41.4194 49.0168 41.4882 48.9 41.4882 48.7211V47.7563C41.4882 47.5072 41.3816 47.383 41.1678 47.383H40.9223ZM39.8333 46.3395H41.2624C42.139 46.3416 42.5776 46.814 42.5776 47.7563V48.7211C42.5776 49.4122 42.2646 49.8606 41.6388 50.0656C41.4882 50.1136 41.2726 50.1376 40.9911 50.1376H40.9223V52.8889H39.8333V46.3395Z" fill="#414142"/>
<path d="M45.1314 50.4811L44.8692 48.4988L44.6078 50.4811H45.1314ZM46.2402 50.5403L46.551 52.8892H45.4517L45.2721 51.5281H44.4706L44.2875 52.8892H43.1914L43.5022 50.5499L44.1661 46.3397H45.5794L46.2402 50.5403Z" fill="#414142"/>
<path d="M47.6099 46.3395H48.6862L49.4126 49.565V46.3395H50.4328V52.8889H49.3565L48.6633 49.7516V52.8889H47.6099V46.3395Z" fill="#414142"/>
<path d="M52.6432 46.3395L53.209 48.8679L53.7753 46.3395H54.9264L53.7784 50.0621L53.7555 50.1312V52.8889H52.6661V50.1344L52.6397 50.0621L51.4917 46.3395H52.6432Z" fill="#414142"/>
<path d="M18.3341 25.0782V30.7555H18.7694C19.1606 30.7555 19.4143 30.7336 19.5304 30.6902C19.9876 30.5089 20.2158 30.1208 20.2158 29.5264V26.3178C20.2158 25.4916 19.8602 25.0782 19.1497 25.0782H18.3341ZM14.7124 21.6085H19.4655C22.3802 21.6159 23.8371 23.1855 23.8371 26.3178V29.5264C23.8371 31.8251 22.7968 33.3153 20.7161 33.9965C20.2158 34.156 19.4979 34.2357 18.5623 34.2357H18.3341V43.3823H14.7124V21.6085Z" fill="#414142"/>
<path d="M26.1758 21.6095H29.7975V43.3818H26.1758V21.6095Z" fill="#414142"/>
<path d="M40.3259 23.6969L36.2145 39.9129H40.5107V43.3826H32.136V41.2944L36.2473 25.078H32.2775V21.6088H40.3259V23.6969Z" fill="#414142"/>
<path d="M50.6227 39.9128H46.329L50.4404 23.6971V21.609H42.392V25.0783H46.3618L42.2505 41.2943V43.3821H49.7433L50.6227 39.9128Z" fill="#414142"/>
<path d="M66.3885 41.6036L65.4656 37.9607C63.6139 39.0967 61.4361 39.7525 59.1043 39.7525C56.7547 39.7525 54.5615 39.0858 52.7005 37.9332L51.7759 41.581C53.967 42.7293 56.4587 43.3823 59.1043 43.3823C61.7321 43.3823 64.208 42.7378 66.3885 41.6036Z" fill="#008556"/>
<path d="M61.3226 21.609H56.8458L53.1829 36.0646C54.1661 36.7977 55.2914 37.3502 56.5093 37.6765L59.0842 27.5139L61.6592 37.6765C62.877 37.3502 64.002 36.7977 64.9852 36.0646L61.3226 21.609Z" fill="#414142"/>
<path d="M38.0466 12.1008V13.1444H37.1798V18.6499H36.0904V13.1444H35.2236V12.1008H38.0466Z" fill="#414142"/>
<path d="M39.1377 12.1008H40.2267V14.8518H40.8713V12.1008H41.9607V18.6499H40.8713V15.8989H40.2267V18.6499H39.1377V12.1008Z" fill="#414142"/>
<path d="M43.314 12.1008H45.8787V13.1444H44.403V14.8518H45.6723V15.8989H44.403V17.6064H45.8787V18.6499H43.314V12.1008Z" fill="#414142"/>
<path d="M32.9256 15.9927H26.1758V14.7579H32.9256V15.9927Z" fill="#F93549"/>
<path d="M54.9265 15.9927H48.2173V14.7579H54.9265V15.9927Z" fill="#F93549"/>
<path d="M40.5511 4.25133C30.9416 4.25133 21.8882 7.13498 15.059 12.3713C8.08938 17.715 4.2511 24.8638 4.2511 32.5001C4.2511 40.1368 8.08938 47.2853 15.059 52.6292C21.8885 57.8652 30.9416 60.7485 40.5511 60.7485C50.1609 60.7485 59.2141 57.8652 66.0432 52.6292C73.0132 47.2853 76.8511 40.1368 76.8511 32.5001C76.8511 24.8638 73.0132 17.715 66.0436 12.3713C59.2144 7.13498 50.1609 4.25133 40.5511 4.25133ZM40.5511 64.3826C30.1468 64.3826 20.308 61.2326 12.8481 55.5129C4.9609 49.4655 0.617432 41.2925 0.617432 32.5001C0.617432 23.7077 4.9609 15.5348 12.8481 9.4877C20.308 3.76767 30.1465 0.617311 40.5511 0.617311C50.9561 0.617311 60.7945 3.76767 68.2545 9.4877C76.1417 15.5348 80.4851 23.7077 80.4851 32.5001C80.4851 41.2929 76.1413 49.4655 68.2541 55.5129C60.7945 61.2326 50.9558 64.3826 40.5511 64.3826Z" fill="#008556"/>
<path d="M40.551 60.1312C31.0767 60.1312 22.1569 57.2931 15.4346 52.1393C8.62097 46.9149 4.86841 39.9404 4.86841 32.5002C4.86841 25.06 8.62097 18.0854 15.4346 12.8611C22.1562 7.70691 31.0763 4.86876 40.551 4.86876C50.0261 4.86876 58.9462 7.70691 65.6678 12.8611C72.4815 18.0854 76.2337 25.06 76.2337 32.5002C76.2337 39.9404 72.4815 46.9149 65.6675 52.1393C58.9455 57.2931 50.0258 60.1312 40.551 60.1312ZM40.551 6.85724e-07C30.0116 6.85724e-07 20.0395 3.19551 12.4723 8.99774C4.4292 15.1644 0 23.5113 0 32.5002C0 41.4891 4.4292 49.8356 12.4723 56.0026C20.0399 61.8045 30.0116 65 40.551 65C51.0908 65 61.0626 61.8045 68.6298 56.0026C76.6729 49.8356 81.1025 41.4891 81.1025 32.5002C81.1025 23.5113 76.6733 15.1644 68.6301 8.99774C61.0629 3.19551 51.0908 6.85724e-07 40.551 6.85724e-07ZM40.551 60.7486C50.1609 60.7486 59.214 57.865 66.0432 52.6289C73.0131 47.2853 76.8511 40.1365 76.8511 32.5002C76.8511 24.8635 73.0131 17.715 66.0435 12.3711C59.2144 7.13469 50.1609 4.25139 40.551 4.25139C30.9416 4.25139 21.8881 7.13469 15.0589 12.3711C8.08932 17.715 4.25104 24.8635 4.25104 32.5002C4.25104 40.1365 8.08932 47.2853 15.0589 52.6289C21.8884 57.865 30.9416 60.7486 40.551 60.7486ZM40.551 0.617372C50.956 0.617372 60.7945 3.76738 68.2544 9.48741C76.1416 15.5348 80.4851 23.7078 80.4851 32.5002C80.4851 41.293 76.1413 49.4655 68.2541 55.5126C60.7945 61.2323 50.9557 64.3826 40.551 64.3826C30.1468 64.3826 20.308 61.2323 12.848 55.5126C4.96084 49.4655 0.617371 41.2926 0.617371 32.5002C0.617371 23.7078 4.96084 15.5348 12.848 9.48741C20.308 3.76738 30.1464 0.617372 40.551 0.617372Z" fill="white"/>
<path d="M40.5511 5.48595C31.2112 5.48595 22.4247 8.27929 15.8104 13.3509C9.15267 18.4557 5.48584 25.2563 5.48584 32.5C5.48584 39.7437 9.15267 46.5443 15.8104 51.6491C22.4254 56.7207 31.2119 59.5137 40.5511 59.5137C49.8907 59.5137 58.6771 56.7207 65.2918 51.6491C71.9499 46.5446 75.6164 39.744 75.6164 32.5C75.6164 25.2563 71.9499 18.4557 65.2922 13.3509C58.6778 8.27929 49.8911 5.48595 40.5511 5.48595ZM40.5511 6.72069C49.6208 6.72069 58.1409 9.42336 64.5407 14.3309C70.887 19.1965 74.3816 25.6493 74.3816 32.5C74.3816 39.351 70.887 45.8038 64.5404 50.6694C58.1402 55.5766 49.6208 58.2789 40.5511 58.2789C31.4818 58.2789 22.9624 55.5766 16.5618 50.6694C10.2156 45.8034 6.72058 39.351 6.72058 32.5C6.72058 25.6493 10.2156 19.1965 16.5618 14.3309C22.9617 9.42336 31.4814 6.72069 40.5511 6.72069" fill="#F93549"/>
</svg>
